PathFileType	4	(X/Y/Z)	C:/Users/opensim2020/Desktop/walking_exp_matlab/subject03_walking10_straight_01.trc																																																																																																																																					
DataRate	CameraRate	NumFrames	NumMarkers	Units	OrigDataRate	OrigDataStartFrame	OrigNumFrames																																																																																																																																	
100	100	4	45	mm	100	837	477																																																																																																																																	
Frame#	Time	LFHD			RFHD			LBHD			RBHD			C7			T10			CLAV			STRN			RBAK			LSHO			LUPA			LELB			LFRM			LWRA			LWRB			LFIN			RSHO			RUPA			RELB			RFRM			RWRA			RWRB			RFIN			LASI			RASI			LPSI			RPSI			LTHI			LKNE			LTIB			LANK			LHEE			LTOE			RTHI			RKNE			RTIB			RANK			RHEE			RTOE			*39			*40			*41			*42			*43			*44		
		X1	Y1	Z1	X2	Y2	Z2	X3	Y3	Z3	X4	Y4	Z4	X5	Y5	Z5	X6	Y6	Z6	X7	Y7	Z7	X8	Y8	Z8	X9	Y9	Z9	X10	Y10	Z10	X11	Y11	Z11	X12	Y12	Z12	X13	Y13	Z13	X14	Y14	Z14	X15	Y15	Z15	X16	Y16	Z16	X17	Y17	Z17	X18	Y18	Z18	X19	Y19	Z19	X20	Y20	Z20	X21	Y21	Z21	X22	Y22	Z22	X23	Y23	Z23	X24	Y24	Z24	X25	Y25	Z25	X26	Y26	Z26	X27	Y27	Z27	X28	Y28	Z28	X29	Y29	Z29	X30	Y30	Z30	X31	Y31	Z31	X32	Y32	Z32	X33	Y33	Z33	X34	Y34	Z34	X35	Y35	Z35	X36	Y36	Z36	X37	Y37	Z37	X38	Y38	Z38	X39	Y39	Z39	X40	Y40	Z40	X41	Y41	Z41	X42	Y42	Z42	X43	Y43	Z43	X44	Y44	Z44	X45	Y45	Z45
																																																																																																																																								
179	1.78	-518.89526	1619.53027	1361.29492	-536.61884	1620.4032	1493.39917	-633.22888	1546.91907	1349.68494	-645.40594	1548.56067	1480.16577	-648.46753	1408.58459	1402.41052	-697.17914	1099.12451	1406.2644	-530.81494	1326.72852	1415.27942	-496.01831	1158.86108	1410.40259	-720.14661	1238.03235	1490.39624	-555.47675	1365.36877	1256.84863	-544.81622	1170.04016	1187.22095	-520.40027	1049.58154	1178.76367	-461.01321	935.29187	1191.20251	-409.35934	833.39172	1233.42627	-430.05692	825.56403	1182.6272	-385.55603	756.79858	1199.45447	-590.96686	1349.76978	1570.58752	-608.76703	1126.07068	1635.69421	-595.7821	1014.57947	1651.5968	-575.12585	878.9364	1656.23364	-530.98096	786.43262	1629.72803	-574.4635	777.94397	1661.06616	-546.35657	708.1604	1655.22546	-540.34991	929.68909	1289.45581	-537.16492	927.93799	1529.18481	-701.15613	958.65082	1344.59497	-698.23267	959.32092	1492.65356	-637.7486	635.36896	1258.01025	-668.90228	460.01431	1294.84814	-767.27917	286.62546	1294.59412	-836.54163	85.7653	1338.84705	-884.4101	59.77866	1374.70483	-692.79175	33.42036	1369.58264	-540.49036	638.48907	1576.13147	-469.20694	472.3923	1541.58875	-460.88269	286.46362	1550.76379	-412.53192	73.75491	1513.92236	-446.97583	38.32224	1458.61914	-267.64774	46.40487	1500.64539	-619.13525	1658.05872	1402.06213	NaN	NaN	NaN	NaN	NaN	NaN	NaN	NaN	NaN	NaN	NaN	NaN	NaN	NaN	NaN
180	1.79	-512.16089	1619.90906	1362.77795	-529.97784	1620.81006	1494.88525	-626.5459	1547.03906	1351.1615	-638.59607	1548.73425	1481.646	-641.58514	1408.75647	1403.96484	-689.70728	1099.13647	1407.69275	-523.77374	1327.0885	1416.63599	-488.66129	1159.26172	1411.35315	-712.58185	1237.67126	1491.61694	-548.62463	1365.69824	1258.21667	-538.94586	1169.90662	1189.12195	-515.78485	1049.15601	1181.0282	-458.34348	933.53705	1192.82959	-408.71002	830.30713	1234.55103	-429.78864	823.17163	1183.74438	-386.91971	753.21875	1200.3158	-583.81769	1349.74963	1572.0929	-600.93512	1125.84119	1636.91846	-587.84711	1014.34222	1653.04382	-568.42181	878.6037	1657.90186	-524.82709	785.59454	1632.56934	-568.7431	777.52063	1663.29907	-541.31323	707.6441	1658.13513	-533.58392	929.27441	1289.95825	-528.94678	928.15125	1529.77771	-693.67889	958.23755	1346.16907	-690.03455	959.79425	1494.29553	-631.97052	635.26587	1258.63782	-663.58673	459.82266	1295.12854	-763.99353	287.56503	1294.8844	-835.45544	87.58202	1338.81091	-883.7467	62.21653	1374.62219	-692.66736	33.37383	1369.53638	-532.44208	639.24884	1576.94897	-464.5603	472.14868	1542.02429	-456.57178	286.4201	1550.82239	-408.62656	73.73491	1513.87671	-444.84134	39.75234	1459.06958	-264.19931	44.49723	1500.71191	-612.53113	1658.33215	1403.49268	NaN	NaN	NaN	NaN	NaN	NaN	NaN	NaN	NaN	NaN	NaN	NaN	NaN	NaN	NaN
181	1.8	-505.39755	1620.50916	1364.23157	-523.17865	1621.41016	1496.32507	-619.62073	1547.54016	1352.73608	-631.7218	1549.21204	1483.19397	-634.59467	1409.16858	1405.56116	-682.11877	1099.38245	1408.90979	-516.58453	1327.73718	1418.04761	-481.24368	1159.91199	1412.2019	-705.3114	1237.60889	1493.15247	-541.7677	1366.23828	1259.57471	-532.80603	1170.07422	1191.06653	-510.95706	1048.87793	1182.83728	-455.84399	931.90692	1194.36414	-408.43094	827.33405	1235.47229	-429.7142	820.99951	1184.71277	-388.56311	749.92242	1201.08301	-576.54315	1349.89319	1573.63	-592.89679	1125.84253	1638.2312	-579.55933	1014.26721	1654.7196	-561.40698	878.4043	1660.2793	-518.40979	784.91608	1635.30786	-562.70251	777.38239	1665.6698	-536.021	707.15076	1661.08093	-526.20703	929.17633	1290.69934	-520.6098	928.63892	1530.41919	-686.51892	958.33612	1347.8064	-681.73029	960.65338	1495.98035	-625.84454	635.21155	1258.95215	-658.32977	460.065	1295.65283	-760.57129	288.70319	1295.20728	-834.42566	89.52202	1338.84912	-882.9613	64.798	1374.65027	-692.41516	33.33436	1369.55029	-525.974	640.01794	1577.37769	-459.88776	472.03928	1542.5271	-451.51868	286.62271	1551.50256	-405.66495	73.55361	1513.48853	-443.06409	40.82471	1459.17126	-261.47531	42.60054	1502.12317	-605.86401	1658.71716	1404.90747	NaN	NaN	NaN	NaN	NaN	NaN	NaN	NaN	NaN	NaN	NaN	NaN	NaN	NaN	NaN
182	1.81	-498.57162	1621.3905	1365.76941	-516.34442	1622.25012	1497.86914	-612.79224	1548.26086	1354.2738	-624.82147	1549.96545	1484.75586	-627.54083	1409.80176	1407.24841	-674.50616	1099.88354	1410.05872	-509.39331	1328.52295	1419.37439	-473.58563	1160.82104	1413.18628	-697.59943	1237.76123	1494.68042	-534.78314	1366.99048	1260.92822	-526.69739	1170.45081	1192.99878	-506.078	1048.96997	1184.82935	-453.37173	930.62292	1195.86414	-408.27032	824.63428	1236.34778	-429.81769	819.15802	1185.52002	-390.62906	746.82166	1201.63074	-569.11633	1350.25061	1575.17065	-584.40948	1126.0968	1639.67822	-571.2749	1014.65833	1656.17432	-554.14984	878.59277	1662.30493	-511.88846	784.5	1637.96021	-556.38086	777.55219	1668.17175	-530.37146	706.89282	1664.03601	-518.56122	929.18536	1291.82031	-512.27728	929.41779	1531.06616	-678.85449	958.36963	1349.23291	-673.599	961.86237	1497.49011	-619.26447	635.49689	1260.2937	-652.59039	460.44458	1296.17126	-756.69568	290.09512	1295.55762	-833.27258	91.89185	1338.89844	-882.03192	67.90752	1374.77783	-692.20905	33.21911	1369.59021	-520.60437	640.94781	1577.55798	-454.73355	472.26184	1542.90613	-446.49356	286.90417	1552.01367	-403.6618	73.53236	1512.89832	-442.10236	41.19713	1458.99475	-259.84317	40.9583	1502.62146	-599.1889	1659.51099	1406.55786	NaN	NaN	NaN	NaN	NaN	NaN	NaN	NaN	NaN	NaN	NaN	NaN	NaN	NaN	NaN
